<?xml version="1.0" encoding="UTF-8" standalone="no"?>
<svg
   xmlns:dc="http://purl.org/dc/elements/1.1/"
   xmlns:cc="http://creativecommons.org/ns#"
   xmlns:rdf="http://www.w3.org/1999/02/22-rdf-syntax-ns#"
   xmlns:svg="http://www.w3.org/2000/svg"
   xmlns="http://www.w3.org/2000/svg"
   xmlns:sodipodi="http://sodipodi.sourceforge.net/DTD/sodipodi-0.dtd"
   xmlns:inkscape="http://www.inkscape.org/namespaces/inkscape"
   version="1.0"
   width="451.55554mm"
   height="400.04999mm"
   viewBox="0 0 1280 1134"
   preserveAspectRatio="xMidYMid meet"
   id="svg2"
   inkscape:version="0.92.2 5c3e80d, 2017-08-06"
   sodipodi:docname="roadworks-L.svg">
  <defs
     id="defs14" />
  <sodipodi:namedview
     pagecolor="#ffffff"
     bordercolor="#666666"
     borderopacity="1"
     objecttolerance="10"
     gridtolerance="10"
     guidetolerance="10"
     inkscape:pageopacity="0"
     inkscape:pageshadow="2"
     inkscape:window-width="2455"
     inkscape:window-height="1824"
     id="namedview12"
     showgrid="false"
     inkscape:zoom="1.0064144"
     inkscape:cx="653.71626"
     inkscape:cy="755.84621"
     inkscape:window-x="0"
     inkscape:window-y="0"
     inkscape:window-maximized="0"
     inkscape:current-layer="g4144"
     units="mm" />
  <metadata
     id="metadata4">
Created by potrace 1.15, written by Peter Selinger 2001-2017
<rdf:RDF>
  <cc:Work
     rdf:about="">
    <dc:format>image/svg+xml</dc:format>
    <dc:type
       rdf:resource="http://purl.org/dc/dcmitype/StillImage" />
    <dc:title></dc:title>
  </cc:Work>
</rdf:RDF>
</metadata>
  <g
     id="g4144">
    <path
       d="M 628.5,1.5 C 612.6,5 597.9,13.9 583,29.1 l -9.5,9.7 -111,190.3 C 401.5,333.8 325.2,464.7 293,520 260.8,575.3 181.6,711.1 117.1,821.8 l -117.4,201.3 0.6,17.7 c 0.8,25.3 3.2,36.9 10.8,52.8 8.3,17.4 20.6,27.8 43,36.5 l 10.2,4 414.1,-1.1 c 227.8,-0.7 487.5,-1.5 577.1,-1.8 l 163,-0.7 11.1,-5.6 c 15,-7.6 22.5,-12.8 31.4,-21.8 16.4,-16.6 20.6,-32.3 18,-66.6 l -1.2,-16 L 1206.3,896 C 1166.9,827.5 1080.3,676.8 1013.7,561 947.2,445.2 852.2,280.1 802.8,194 753.3,107.9 711.4,36 709.7,34.1 704.3,28.4 690.4,17.6 682.2,12.8 663.2,1.6 645.2,-2.2 628.5,1.5 Z m 83.7,272.2 c 63.8,109.4 129,221.2 368,630.6 36.9,63.2 66.9,114.9 66.7,115.1 -0.5,0.3 -1009.3,-1.6 -1009.7,-1.9 C 136.8,1017.2 639.4,151 640,151 c 0.3,0 32.8,55.2 72.2,122.7 z"
       id="path8"
       inkscape:connector-curvature="0"
       style="fill:#ff0000;stroke:none;stroke-width:0.85039371;stroke-linejoin:miter;stroke-miterlimit:4;stroke-dasharray:none" />
    <path
       d="m 547,418.1 c -9.3,1.5 -21.1,8 -29.3,16.2 -10.6,10.6 -16.6,23.7 -16.7,36.4 0,6.6 2.7,18 6.7,28.2 3.3,8.4 4.2,9.7 8.7,13.1 18.6,13.8 38.5,18.6 54,13.1 3.2,-1.1 6.5,-2.6 7.2,-3.1 1.4,-1.3 1.6,-1 4.4,5.9 l 2,5.3 -2.7,2.1 c -10.3,7.9 -21.6,20.7 -28.7,32.5 l -3.8,6.4 0.6,9.1 c 2.2,28.1 7.8,62 13.3,80.1 3,10 3.6,7.8 -5.5,21.3 -6.6,9.6 -16.1,29.1 -19.5,39.8 -3.9,12.3 -6.6,26.1 -7.3,38.2 l -0.7,11 -23.1,14.3 c -12.7,7.9 -24.1,15 -25.3,15.7 -2.1,1.4 -2.1,1.3 -2.1,-3.3 0.1,-4.5 -0.1,-4.9 -6.3,-10.5 -7.6,-7 -12.1,-9.4 -23.1,-12.2 l -8.3,-2.2 -0.6,-4.7 c -0.4,-2.5 -1.9,-6.6 -3.3,-9 -4,-6.9 -15.7,-19.8 -19.1,-21.3 -5.2,-2.1 -11,-2.7 -15.4,-1.5 -3.9,1 -4.6,0.8 -11.8,-2.7 -7.3,-3.6 -8.1,-3.8 -17.2,-3.7 -6.1,0 -11.6,0.6 -15.1,1.7 l -5.5,1.7 -67.1,122.2 c -37,67.3 -67.1,122.4 -66.9,122.6 0.1,0.1 70.1,-0.1 155.5,-0.5 l 155.3,-0.6 -0.7,-11.1 c -3,-49.7 -17.5,-100.1 -39.6,-137.5 -1.7,-3 -3,-5.4 -2.8,-5.6 0.2,-0.1 10,-5.9 21.8,-12.8 l 21.5,-12.6 18.5,0.8 c 10.2,0.4 18.8,0.6 19.2,0.4 0.4,-0.2 3,-7.4 5.9,-16.1 l 5.2,-15.8 24,-12.7 c 13.2,-7 24.1,-12.6 24.3,-12.4 0.1,0.1 -3,7.9 -7.1,17.2 l -7.3,17 -1.1,41 c -0.7,22.5 -1.6,55.8 -2.1,74 -0.6,18.1 -1,38.7 -1,45.7 v 12.7 l -5.7,1.1 c -17.3,3.4 -32.9,9.5 -40.2,15.6 -3.1,2.6 -5.2,5.8 -6.5,10.2 l -0.7,2.2 53.2,-0.2 53.3,-0.3 16.2,-73.5 c 8.9,-40.4 16,-73.8 15.8,-74.2 -0.3,-0.5 -2,-0.8 -3.8,-0.8 -1.8,0 -3.5,-0.2 -3.7,-0.4 -0.3,-0.3 -0.1,-5.3 0.4,-11.2 l 0.8,-10.7 7,-7.6 c 12.6,-13.8 25.6,-33.7 42.2,-64.4 l 7.4,-13.8 0.6,12.3 c 1.2,23.9 6.9,42.6 22.7,73.7 l 7.9,15.6 16.8,17.4 c 26.1,27.1 49.7,48.4 86.3,78.1 19,15.3 18.5,14.3 12.5,26.5 -3.5,7.3 -7.5,12.3 -20.9,26.9 -4.3,4.8 -7.7,8.8 -7.5,8.9 0.2,0.2 9.6,0.1 20.9,-0.2 l 20.5,-0.6 9.2,-7 9.3,-7 21,-36.7 c 11.5,-20.2 21,-37.2 21,-37.6 0,-0.4 -5.3,-2.1 -11.9,-3.7 l -11.8,-3 -44.2,-50 c -24.3,-27.5 -44.5,-50.1 -45,-50.3 -0.5,-0.2 -1.6,1.5 -2.5,3.8 -0.9,2.2 -2,4 -2.5,4 -1.8,0 -12,-12.1 -14.5,-17.2 -5.4,-11.2 -8.6,-28.9 -9.2,-51 -0.6,-25.3 -5,-42.1 -18.5,-69.8 l -8,-16.5 4.8,-4.2 c 2.6,-2.3 5.1,-4.2 5.6,-4.3 0.4,0 1.2,1.1 1.7,2.5 1.8,4.6 4.9,5 12.2,1.7 10.5,-4.7 17.2,-11.6 21.4,-22 l 2.2,-5.6 -2.3,-4.7 c -2.9,-5.6 -8.7,-10.7 -13.2,-11.5 -1.8,-0.3 -3.3,-0.8 -3.3,-1.1 0,-0.3 -1.3,-8.4 -3,-18.1 -8.2,-48.6 -24.4,-87.2 -42.9,-101.9 -3.1,-2.4 -13,-8.1 -22.1,-12.5 l -16.5,-8.1 -14,1.7 c -54.6,6.7 -79.8,15.2 -104.6,35.3 -6.5,5.2 -10.9,6.7 -12.5,4.2 -0.4,-0.6 -0.7,-7.7 -0.8,-15.8 -0.1,-12.4 -0.5,-15.5 -2.4,-21 -2.8,-7.7 -8,-16.1 -13.6,-21.9 -10.4,-10.8 -31.4,-17.6 -46.6,-15.1 z m 207.5,93.3 c 15.8,7.4 26.9,31.8 40,87.3 l 2.7,11.3 -5.4,4.9 c -2.9,2.7 -5.4,4.8 -5.4,4.8 -0.7,-0.8 -63.8,-100.5 -64.1,-101.4 -0.5,-1.4 8.1,-6 14.7,-7.9 6.9,-1.9 12,-1.6 17.5,1 z M 616.3,622.1 c 6.2,3.2 23,20.6 34,35.4 5.3,7.1 9.7,13.4 9.7,14.1 0,0.6 -2.7,7.6 -5.9,15.5 l -5.9,14.4 -36.3,22.8 c -20,12.5 -37.2,23.2 -38.2,23.8 -1.7,0.9 -1.8,0.7 -1.1,-2.7 2.1,-11.5 11,-26 25.8,-42.6 5.3,-5.9 10.1,-11.9 10.6,-13.4 3.4,-8.9 5.3,-48.6 3.1,-64.2 -0.4,-2.8 -0.6,-5.2 -0.4,-5.2 0.2,0 2.3,1 4.6,2.1 z"
       id="path10"
       inkscape:connector-curvature="0"
       style="fill:#000000;stroke:none" />
  </g>
</svg>
